<svg width="1200" height="630" viewBox="0 0 1200 630" fill="none" xmlns="http://www.w3.org/2000/svg">
  <defs>
    <linearGradient id="bg" x1="120" y1="40" x2="1080" y2="590" gradientUnits="userSpaceOnUse">
      <stop stop-color="#0A0F1F"/>
      <stop offset="0.5" stop-color="#11172B"/>
      <stop offset="1" stop-color="#050816"/>
    </linearGradient>
    <linearGradient id="accent" x1="225" y1="72" x2="967" y2="520" gradientUnits="userSpaceOnUse">
      <stop stop-color="#854CE6"/>
      <stop offset="1" stop-color="#27C6F5"/>
    </linearGradient>
    <linearGradient id="panel" x1="817" y1="122" x2="1038" y2="451" gradientUnits="userSpaceOnUse">
      <stop stop-color="#161B34" stop-opacity="0.96"/>
      <stop offset="1" stop-color="#0D1224" stop-opacity="0.96"/>
    </linearGradient>
    <filter id="blurGlow" x="735" y="106" width="314" height="314" filterUnits="userSpaceOnUse" color-interpolation-filters="sRGB">
      <feGaussianBlur stdDeviation="24"/>
    </filter>
  </defs>

  <rect width="1200" height="630" fill="url(#bg)"/>
  <circle cx="1065" cy="84" r="176" fill="#854CE6" fill-opacity="0.18"/>
  <circle cx="961" cy="505" r="208" fill="#27C6F5" fill-opacity="0.12"/>
  <circle cx="168" cy="578" r="182" fill="#854CE6" fill-opacity="0.10"/>
  <path d="M0 486C215 430 323 617 523 565C742 508 852 320 1200 417V630H0V486Z" fill="#090D1B" fill-opacity="0.82"/>

  <rect x="72" y="72" width="178" height="178" rx="36" fill="#0B1020" stroke="url(#accent)" stroke-width="3"/>
  <rect x="92" y="92" width="138" height="138" rx="28" fill="#0F152B"/>
  <path d="M126 186L161 126L186 170L202 146L223 186" stroke="url(#accent)" stroke-width="13" stroke-linecap="round" stroke-linejoin="round"/>
  <circle cx="161" cy="126" r="10" fill="#27C6F5"/>
  <circle cx="202" cy="146" r="10" fill="#854CE6"/>

  <rect x="72" y="282" width="168" height="40" rx="20" fill="#10152A" stroke="#2E3B67"/>
  <text x="101" y="308" fill="#D8DFFF" font-family="Arial, Helvetica, sans-serif" font-size="20" font-weight="700">0xwaya.dev</text>

  <text x="286" y="150" fill="#9BA9D5" font-family="Arial, Helvetica, sans-serif" font-size="24" font-weight="700" letter-spacing="0.22em">EDWARD MERCADO</text>
  <text x="286" y="246" fill="white" font-family="Arial, Helvetica, sans-serif" font-size="66" font-weight="800">AI Agent Architect</text>
  <text x="286" y="316" fill="white" font-family="Arial, Helvetica, sans-serif" font-size="66" font-weight="800">Web3 Builder</text>
  <text x="286" y="386" fill="#C6D0F2" font-family="Arial, Helvetica, sans-serif" font-size="30" font-weight="500">LangGraph systems, Solidity apps, and modern full-stack products.</text>

  <rect x="286" y="448" width="164" height="50" rx="25" fill="#121A31" stroke="#2D3D66"/>
  <text x="320" y="480" fill="#F5F7FF" font-family="Arial, Helvetica, sans-serif" font-size="22" font-weight="700">AI Agents</text>
  <rect x="467" y="448" width="127" height="50" rx="25" fill="#121A31" stroke="#2D3D66"/>
  <text x="510" y="480" fill="#F5F7FF" font-family="Arial, Helvetica, sans-serif" font-size="22" font-weight="700">Web3</text>
  <rect x="611" y="448" width="169" height="50" rx="25" fill="#121A31" stroke="#2D3D66"/>
  <text x="642" y="480" fill="#F5F7FF" font-family="Arial, Helvetica, sans-serif" font-size="22" font-weight="700">Full-Stack</text>

  <g filter="url(#blurGlow)">
    <circle cx="892" cy="263" r="109" fill="#854CE6" fill-opacity="0.16"/>
  </g>
  <rect x="760" y="130" width="340" height="340" rx="42" fill="url(#panel)" stroke="#2C3962" stroke-width="2"/>
  <rect x="791" y="164" width="276" height="16" rx="8" fill="#202A47"/>
  <rect x="791" y="194" width="214" height="16" rx="8" fill="#1A2340"/>
  <rect x="791" y="246" width="278" height="84" rx="20" fill="#0B1020" stroke="#26365F"/>
  <path d="M826 297C862 266 901 286 931 254C961 222 1001 231 1034 205" stroke="url(#accent)" stroke-width="8" stroke-linecap="round"/>
  <circle cx="826" cy="297" r="8" fill="#27C6F5"/>
  <circle cx="931" cy="254" r="8" fill="#854CE6"/>
  <circle cx="1034" cy="205" r="8" fill="#27C6F5"/>
  <rect x="791" y="355" width="124" height="78" rx="20" fill="#0B1020" stroke="#26365F"/>
  <text x="825" y="392" fill="#F5F7FF" font-family="Arial, Helvetica, sans-serif" font-size="34" font-weight="800">16</text>
  <text x="826" y="417" fill="#97A7D7" font-family="Arial, Helvetica, sans-serif" font-size="16" font-weight="700">AGENTS</text>
  <rect x="943" y="355" width="124" height="78" rx="20" fill="#0B1020" stroke="#26365F"/>
  <text x="969" y="392" fill="#F5F7FF" font-family="Arial, Helvetica, sans-serif" font-size="34" font-weight="800">24/7</text>
  <text x="959" y="417" fill="#97A7D7" font-family="Arial, Helvetica, sans-serif" font-size="16" font-weight="700">SYSTEMS</text>

  <text x="72" y="584" fill="#8393C7" font-family="Arial, Helvetica, sans-serif" font-size="22" font-weight="600">wayalabs.com</text>
</svg>